<svg width="32" height="32" viewBox="0 0 32 32" fill="none" xmlns="http://www.w3.org/2000/svg">
<g id="icon">
<path id="Vector" d="M8.54888 25.8294L8.54138 25.8369L8.53415 25.8447C7.97846 26.4412 7.47991 26.8024 7.0668 26.9807C6.65957 27.1565 6.37196 27.142 6.17218 27.0559C5.96802 26.968 5.743 26.7569 5.56312 26.3158C5.38244 25.8728 5.2665 25.2387 5.2665 24.4003V9.38699C5.2665 6.69117 5.59558 5.2404 6.36132 4.4219C7.11375 3.61763 8.44104 3.26699 10.9598 3.26699H21.0398C23.5589 3.26699 24.8857 3.61773 25.6363 4.42151C26.4002 5.23942 26.7265 6.68961 26.7198 9.3855V9.38699V24.387C26.7198 25.2257 26.6046 25.8602 26.4247 26.3034C26.2456 26.7448 26.0216 26.9552 25.8187 27.0428C25.6202 27.1285 25.3333 27.1434 24.9249 26.9673C24.511 26.7888 24.0107 26.4274 23.4517 25.8308C22.7923 25.1234 21.9333 24.7742 21.0705 24.8212C20.2079 24.8682 19.392 25.3085 18.8132 26.0803L18.8127 26.0809L17.4681 27.8782C17.4678 27.8786 17.4675 27.879 17.4672 27.8794C17.0236 28.4647 16.4848 28.7103 15.9932 28.7103C15.5015 28.7103 14.9627 28.4647 14.5192 27.8794C14.5189 27.879 14.5185 27.8786 14.5182 27.8782L13.1738 26.0811C13.1737 26.0811 13.1737 26.081 13.1736 26.0809C12.0038 24.5159 9.90332 24.4002 8.55626 25.822L8.54888 25.8294ZM8.43984 14.667C8.43984 15.7317 9.30847 16.6003 10.3732 16.6003C11.4379 16.6003 12.3065 15.7317 12.3065 14.667C12.3065 13.6023 11.4379 12.7337 10.3732 12.7337C9.30847 12.7337 8.43984 13.6023 8.43984 14.667ZM8.43984 9.33366C8.43984 10.3984 9.30847 11.267 10.3732 11.267C11.4379 11.267 12.3065 10.3984 12.3065 9.33366C12.3065 8.26896 11.4379 7.40033 10.3732 7.40033C9.30847 7.40033 8.43984 8.26895 8.43984 9.33366ZM14.3065 16.267H21.6398C22.5179 16.267 23.2398 15.545 23.2398 14.667C23.2398 13.789 22.5179 13.067 21.6398 13.067H14.3065C13.4285 13.067 12.7065 13.789 12.7065 14.667C12.7065 15.545 13.4285 16.267 14.3065 16.267ZM14.3065 10.9337H21.6398C22.5179 10.9337 23.2398 10.2117 23.2398 9.33366C23.2398 8.45562 22.5179 7.73366 21.6398 7.73366H14.3065C13.4285 7.73366 12.7065 8.45562 12.7065 9.33366C12.7065 10.2117 13.4285 10.9337 14.3065 10.9337Z" stroke="#D9AC4F" stroke-width="1.2"/>
</g>
</svg>
