<svg width="80" height="80" viewBox="0 0 80 80" fill="none" xmlns="http://www.w3.org/2000/svg">
<g filter="url(#filter0_d_238_56061)">
<path fill-rule="evenodd" clip-rule="evenodd" d="M15.4998 5H64.5001C66.4331 5 68.0001 6.56701 68.0001 8.50002V71.5004C68.0001 73.4334 66.4331 75.0004 64.5001 75.0004H15.4998C13.5668 75.0004 11.9998 73.4334 11.9998 71.5004V8.50002C11.9998 6.56701 13.5668 5 15.4998 5ZM25.9998 45.6006C25.2266 45.6006 24.5998 46.2274 24.5998 47.0006C24.5998 47.7738 25.2266 48.4006 25.9998 48.4006H43.4999C44.2731 48.4006 44.9 47.7738 44.9 47.0006C44.9 46.2274 44.2731 45.6006 43.4999 45.6006H25.9998ZM25.9998 56.1006C25.2266 56.1006 24.5998 56.7274 24.5998 57.5007C24.5998 58.2739 25.2266 58.9007 25.9998 58.9007H54C54.7732 58.9007 55.4 58.2739 55.4 57.5007C55.4 56.7274 54.7732 56.1006 54 56.1006H25.9998Z" fill="url(#paint0_linear_238_56061)"/>
</g>
<path d="M26 5H42V33L34 26L26 33V5Z" fill="#DD8500" stroke="#DD8500" stroke-width="2" stroke-linecap="round" stroke-linejoin="round"/>
<defs>
<filter id="filter0_d_238_56061" x="11.9998" y="5" width="56.0002" height="72" filterUnits="userSpaceOnUse" color-interpolation-filters="sRGB">
<feFlood flood-opacity="0" result="BackgroundImageFix"/>
<feColorMatrix in="SourceAlpha" type="matrix" values="0 0 0 0 0 0 0 0 0 0 0 0 0 0 0 0 0 0 127 0" result="hardAlpha"/>
<feOffset dy="2"/>
<feComposite in2="hardAlpha" operator="out"/>
<feColorMatrix type="matrix" values="0 0 0 0 0.560784 0 0 0 0 0.321569 0 0 0 0 0.0235294 0 0 0 1 0"/>
<feBlend mode="normal" in2="BackgroundImageFix" result="effect1_dropShadow_238_56061"/>
<feBlend mode="normal" in="SourceGraphic" in2="effect1_dropShadow_238_56061" result="shape"/>
</filter>
<linearGradient id="paint0_linear_238_56061" x1="39.9999" y1="5" x2="39.9999" y2="75.0004" gradientUnits="userSpaceOnUse">
<stop stop-color="#FAE59F"/>
<stop offset="1" stop-color="#C4933F"/>
</linearGradient>
</defs>
</svg>
